<svg width="48" height="72" fill="none" xmlns="http://www.w3.org/2000/svg"><path d="M34.201 70.98c1.583-4.035 4.165-7.442 6.548-11.042.856-1.293 3.713-3.749 3.713-5.455 0-1.526-6.528 4.494-6.615 4.585-3.397 3.535-6.48 7.426-9.958 10.874-6.017 5.965 7.975-14.906 11.78-22.452.531-1.053 2.799-3.291 1.62-3.145-3.993.495-8.732 9.203-10.936 11.979-1.317 1.659-5.432 6.499-3.983 4.952 4.593-4.903 8.3-10.708 12.32-16.061 2.694-3.586 6.07-6.915 8.27-10.841.705-1.257-8.168 5.011-8.742 5.487-6.587 5.464-12.16 11.487-18.193 17.467-.635.628-1.035.803-.338-.368 2.634-4.428 6.358-8.264 9.856-12.013 4.981-5.337 9.651-10.79 14.38-16.328 3.298-3.865-.702-.902-2.667.702-8.384 6.845-16.772 13.878-24.37 21.582-2.106 2.135-4.081 4.336-5.84 6.76-.109.149-2.183 2.91-.81.669 5.322-8.69 13.445-15.499 20.185-23.055 3.389-3.8 8.089-7.401 10.801-11.744 2.57-4.115-7.184 6.575-11.071 9.502-5.82 4.383-13.896 8.712-17.991 14.957-.122.186-.486.719-.439.502.87-4.028 4.681-7.76 7.156-10.774 7.789-9.488 15.767-19.053 24.404-27.806 3.267-3.31.725-1.02-1.013.904-8.511 9.422-18.862 17.25-27.914 26.166-.484.477-5.42 6.748-3.342 1.94 2.356-5.449 6.297-10.35 9.823-15.057 5.532-7.386 11.23-14.704 17.282-21.682.125-.144 2.337-2.614-.102.034-4.728 5.133-9.535 10.161-14.413 15.157-4.057 4.156-8.134 8.297-11.746 12.849-.865 1.09-1.56 2.752-2.565 3.747-1.252 1.24-2.703 1.865-3.916 3.547A30.77 30.77 0 012 41.468" stroke="#FF5643" stroke-width="2" stroke-linecap="round" stroke-linejoin="round"/><path fill-rule="evenodd" clip-rule="evenodd" d="M0 39a3 3 0 011.077-2.303l35.25-29.444a3 3 0 014.923 2.302v58.89a3 3 0 01-4.923 2.302L1.077 41.302A3 3 0 010 39zm35.25 23.03V15.97L7.68 39l27.57 23.03z" fill="#fff"/></svg>