<svg width="40" height="40" fill="none" xmlns="http://www.w3.org/2000/svg"><g clip-path="url(#clip0)"><path d="M20.007 40.013c11.049 0 20.006-8.957 20.006-20.006C40.013 8.957 31.056 0 20.007 0 8.957 0 0 8.957 0 20.007c0 11.049 8.957 20.006 20.007 20.006z" fill="#FF5A24"/><path fill-rule="evenodd" clip-rule="evenodd" d="M18.39 28.089h1.617s.516-.08.768-.345c.252-.251.252-.675.252-.675s0-2.213 1.02-2.557c1.02-.345 2.292 2.133 3.657 3.06 1.02.676 1.789.596 1.789.596l3.656-.08s1.961-.079 1.02-1.616c-.079-.172-.516-1.113-2.729-3.153-2.292-2.133-1.96-1.789.769-5.445 1.696-2.293 2.385-3.657 2.133-4.253-.172-.597-1.444-.425-1.444-.425h-4.174s-.344-.079-.517.08c-.251.172-.344.424-.344.424s-.676 1.696-1.537 3.233c-1.868 3.153-2.557 3.326-2.888 3.06-.676-.423-.517-1.788-.517-2.808 0-3.061.424-4.253-.848-4.598-.424-.08-.768-.172-1.961-.172-1.444 0-2.73 0-3.405.344-.517.252-.848.769-.596.769.251.08.848.172 1.192.596.424.596.424 1.868.424 1.868s.252 3.578-.596 4.002c-.596.344-1.365-.345-2.981-3.154-.848-1.444-1.444-3.06-1.444-3.06s-.173-.345-.345-.425a2.318 2.318 0 00-.57-.251H5.87s-.597 0-.769.252c-.172.251 0 .675 0 .675s3.06 7.234 6.559 10.812c3.153 3.418 6.73 3.246 6.73 3.246z" fill="#fff"/></g><defs><clipPath id="clip0"><path fill="#fff" d="M0 0h40v40H0z"/></clipPath></defs></svg>