<svg width="40" height="40" fill="none" xmlns="http://www.w3.org/2000/svg"><g clip-path="url(#clip0)"><path d="M20.007 40.013c11.049 0 20.006-8.957 20.006-20.006C40.013 8.957 31.056 0 20.007 0 8.957 0 0 8.957 0 20.007c0 11.049 8.957 20.006 20.007 20.006z" fill="#fff"/><path d="M19.914 11.487c2.888 0 3.153 0 4.346.08 1.02.08 1.616.252 1.96.344.518.173.849.424 1.273.769.344.344.596.768.768 1.272.172.344.345.94.345 1.96.08 1.114.08 1.445.08 4.346 0 2.902 0 3.154-.08 4.346-.08 1.02-.252 1.617-.345 1.961-.172.517-.424.848-.768 1.272a3.246 3.246 0 01-1.272.768c-.345.173-.941.345-1.961.345-1.113.08-1.444.08-4.346.08s-3.153 0-4.346-.08c-1.02-.08-1.616-.252-1.96-.345-.518-.172-.849-.423-1.273-.768a3.246 3.246 0 01-.768-1.272c-.172-.344-.345-.94-.345-1.96-.08-1.114-.08-1.445-.08-4.347 0-2.901 0-3.153.08-4.345.08-1.02.252-1.617.345-1.961.172-.517.424-.848.768-1.272a3.246 3.246 0 011.272-.769c.345-.172.941-.344 1.961-.344 1.193-.08 1.537-.08 4.346-.08zm0-1.96c-2.888 0-3.233 0-4.425.079-1.113.08-1.869.252-2.637.517-.676.265-1.272.596-1.868 1.285-.596.596-.94 1.192-1.272 1.868-.265.676-.437 1.444-.517 2.637-.08 1.192-.08 1.537-.08 4.425s0 3.233.08 4.425c.08 1.113.252 1.868.517 2.637.252.676.596 1.272 1.272 1.868.596.596 1.192.94 1.868 1.272.676.252 1.444.424 2.637.517 1.113.08 1.537.08 4.425.08s3.233 0 4.425-.08c1.113-.08 1.869-.252 2.637-.517.676-.252 1.272-.596 1.868-1.272.596-.596.94-1.192 1.272-1.868.252-.676.424-1.444.517-2.637.08-1.113.08-1.537.08-4.425 0-2.889 0-3.233-.08-4.425-.08-1.113-.252-1.869-.517-2.637-.252-.676-.596-1.272-1.272-1.868-.596-.596-1.192-.94-1.868-1.272-.676-.252-1.444-.424-2.637-.517-1.1 0-1.523-.093-4.425-.093z" fill="#FF5643"/><path d="M19.914 14.813a5.428 5.428 0 00-5.446 5.446c0 2.98 2.465 5.445 5.446 5.445s5.445-2.464 5.445-5.445c.093-2.982-2.384-5.446-5.445-5.446zm0 9.023a3.596 3.596 0 01-3.577-3.577 3.596 3.596 0 013.577-3.578 3.596 3.596 0 013.577 3.578 3.596 3.596 0 01-3.577 3.577zm5.711-8.016a1.272 1.272 0 100-2.544 1.272 1.272 0 000 2.544z" fill="#FF5643"/></g><defs><clipPath id="clip0"><path fill="#fff" d="M0 0h40v40H0z"/></clipPath></defs></svg>