<svg width="40" height="40" fill="none" xmlns="http://www.w3.org/2000/svg"><g clip-path="url(#clip0)"><path d="M20.007 40.013c11.049 0 20.006-8.957 20.006-20.006C40.013 8.957 31.056 0 20.007 0 8.957 0 0 8.957 0 20.007c0 11.049 8.957 20.006 20.007 20.006z" fill="#fff"/><g clip-path="url(#clip1)"><path d="M28.97 10.218L6.823 18.803c-.892.4-1.193 1.2-.216 1.635l5.682 1.815 13.739-8.534c.75-.536 1.518-.393.857.196l-11.8 10.74-.37 4.544c.343.701.972.705 1.373.356l3.264-3.105 5.591 4.208c1.3.773 2.006.274 2.285-1.142l3.667-17.454c.381-1.744-.268-2.512-1.923-1.844z" fill="#FF5A24"/></g></g><defs><clipPath id="clip0"><path fill="#fff" d="M0 0h40v40H0z"/></clipPath><clipPath id="clip1"><path fill="#fff" transform="translate(6 8)" d="M0 0h25v25H0z"/></clipPath></defs></svg>