<svg width="1920" height="1077" fill="none" xmlns="http://www.w3.org/2000/svg"><g clip-path="url(#clip0)"><path fill="#fff" d="M-390 0h2700v1077H-390z"/><path d="M-390 231.295V108.226c2.398.176 4.912.234 7.193.526 52.923 7.948 105.729 16.071 158.827 23.843 104.267 15.369 209.06 30.212 312.976 45.932 109.471 16.596 216.603 35.296 319.642 57.619 113.214 24.485 219.176 53.061 312.449 88.766 73.039 27.992 135.553 59.197 182.511 95.194 45.087 34.595 73.624 71.06 78.595 110.213.175 1.52.818 2.981 1.286 4.5 2.573-.993 3.099-1.928 3.45-2.922 12.164-32.491 6.082-64.69-12.456-96.48-28.479-48.912-85.202-92.565-159.47-132.653-70.583-38.042-154.149-71.176-245.55-101.213-78.361-25.713-160.64-49.321-246.837-70.651-81.168-20.102-163.154-39.679-244.673-59.49-92.922-22.555-185.727-45.17-278.707-67.67-6.258-1.519-14.327-2.57-21.579-2.63C-278.248.936-334.095.995-390 .995c.409-.35.76-.935 1.228-.935 3.333-.117 6.667-.059 9.941-.059H2310c0 357.52 0 715.04-.12 1072.5 0 1.46-1.58 2.98-2.39 4.44 1.57-3.68-1.99-5.96-10.41-7.89-58.83-13.5-116.43-27.81-176.08-40.67-114.21-24.6-229.7-48.269-344.2-72.695-105.09-22.44-207.49-46.692-304.68-74.391-116.13-33.076-222.51-70.3-310.22-115.531-88.48-45.698-151.75-95.954-175.555-153.398-9.065-21.972-10.76-44.003-4.094-66.151 1.813 2.688 2.456 5.435 3.976 8.123 10.059 17.882 17.013 36.114 31.113 53.47 25.73 31.673 67.54 60.249 118.59 86.546 56.37 29.043 122.46 54.171 195.79 76.261 96.9 29.218 201.69 53.061 313.44 71.819 81.11 13.558 163.1 26.589 246.43 37.751 120.23 16.011 242.1 30.153 363.26 45.055a17471.7 17471.7 0 0151.93 6.428V819.935c-2.92-.292-5.26-.702-7.72-.818-39-1.637-78.18-2.864-117.07-5.026-100.35-5.435-200.81-10.577-300.69-17.181-122.63-8.064-242.1-21.271-357.6-39.854-90.17-14.492-175.55-32.549-253.85-55.632-70.29-20.745-132.51-44.763-183.68-73.281-43.34-24.134-76.32-50.197-97.311-78.715-1.345-1.811.351-3.973.643-5.96.644 1.519.41 3.272 2.106 4.616 27.722 22.031 63.272 41.841 105.672 59.665 64.44 27.115 139.59 48.386 222.98 65.333 89.53 18.174 184.03 30.212 281.86 38.51 105.2 8.941 211.87 13.265 319.17 13.265 99.59 0 199.24-2.045 298.77-3.506 28.83-.409 57.6-1.695 86.43-2.571v-94.786c-11.34 1.052-21.81 1.987-32.16 3.039-149.47 15.603-300.05 28.634-454.49 33.543-121.52 3.857-242.34 2.571-362.16-6.837-81.11-6.37-159.18-16.596-232.98-31.556-74.73-15.194-141.57-34.712-198.24-59.548-12.63-5.551-23.04-11.863-34.443-17.823 9.183 3.038 18.183 6.194 27.543 9.174 96.14 30.505 206.14 48.094 326.25 56.626 119.24 8.474 238.3 6.779 357.07-.76 101.52-6.428 200.05-17.706 296.78-31.556 102.1-14.609 200.99-32.199 299-50.665 6.54-1.227 8.77-2.746 8.77-5.668-.24-33.076-.18-66.151-.24-99.227 0-.993-.7-2.045-1.17-3.389-4.15 1.169-7.31 1.987-10.29 2.863-100.52 29.628-202.8 58.262-311.28 83.098-74.32 17.064-150.81 32.316-230.7 44.763-116.78 18.291-236.83 30.329-362.74 32.082-114.03 1.578-224.44-5.025-328.99-23.959-23.16-4.208-44.86-9.701-67.255-14.551l.644-.234c4.741.585 9.471 1.169 14.211 1.812 76.37 10.402 154.97 14.843 235.55 13.908 107.13-1.227 209.47-11.279 308.36-27.29 76.89-12.448 149.23-28.401 218.41-46.633 117.54-31.031 223.1-67.788 321.57-107.817 70.35-28.635 137.66-58.438 205.85-87.89 4.44-1.928 7.54-5.142 7.54-7.831.41-58.203.29-116.465.23-174.669 0-1.402-.35-2.746-.7-5.493-18.89 11.863-36.14 22.44-52.86 33.193-71.93 46.282-142.69 92.856-215.84 138.847-69.24 43.535-145.62 85.084-232.4 123.419-79.64 35.238-166.89 66.911-267.07 92.682-74.09 19.05-152.57 34.361-237.48 44.179-82.57 9.583-166.49 13.966-252.45 10.927-17.6-.642-35.2-1.168-52.804-1.753 2.339-.701 4.564-1.987 7.074-2.045 9.88-.351 19.88-.117 29.77-.468 113.44-3.915 217.54-18.816 314.2-42.542 84.91-20.804 158.77-46.867 224.67-76.67 87.14-39.328 156.96-83.331 217.19-129.906 63.57-49.087 115.32-100.22 164.27-151.82 36.9-38.861 74.03-77.722 111.17-116.583 7.01-7.304 14.73-14.55 22.28-21.914h-305.44c-11.22 26.063-21.75 51.776-33.39 77.43-24.03 52.827-50.17 105.421-88.77 156.962-39.06 52.068-89 102.324-160.58 148.84-74.85 48.62-167.42 90.52-289.47 121.141-63.21 15.837-130.93 27.407-204.03 33.718-3.51.292-7.716-.701-11.634-1.11 3.801-.175 8.014.058 11.404-.526 75.49-12.856 141.52-31.439 199.76-54.347 69.36-27.29 123.68-58.904 166.78-93.675 51.93-41.899 85.85-86.078 107.78-131.893 15.14-31.673 24.97-63.638 30.99-95.779 8.77-47.042 8.13-94.142 7.19-141.243-.11-6.545 0-13.031 0-19.518h-246.25c9.24 20.103 18.42 39.913 27.49 59.723 16.84 36.933 28.77 74.099 35.43 111.557 7.78 43.828 6.08 87.539-8.94 131.134-13.92 40.38-40.35 79.241-82.81 116.29-29.76 25.946-67.31 50.022-114.21 71.586-37.54 17.239-79 32.783-127.48 45.172 2.05-.994 3.8-2.163 6.26-2.981 67.77-22.264 120.64-49.379 161.69-80.117 68.59-51.425 98.36-106.999 105.49-164.735 6.14-49.789-6.49-99.051-28.47-148.022-20.59-45.698-50.12-90.578-81.82-135.165-2.69-3.799-6.37-4.85-15.9-4.85-74.09.175-148.127.058-222.219.116-4.269 0-8.538.175-13.801.292 10.234 8.415 20.409 16.187 29.239 24.135 38.537 34.712 78.481 69.19 114.501 104.311 42.4 41.373 72.4 84.325 91.05 128.503 20.53 48.62 24.27 97.298 1.46 145.977-18.71 39.912-54.03 77.195-111.98 110.797-13.04 7.538-27.37 14.726-41.056 22.089l-1.344 1.344c-1.696-.467-3.334-.935-5.03-1.402 1.755-.877 3.801-1.695 5.205-2.688 56.725-39.445 82.625-82.28 86.605-127.335 4.85-54.99-23.97-107.759-72.16-158.95-40.351-42.834-93.625-83.098-154.325-121.842C786.758 83.507 712.432 43.244 635.007 3.799c-3.333-1.695-10.818-2.98-16.315-2.98C510.273.643 401.854.702 293.435.702c-2.631 0-5.263.175-9.882.292 27.66 9.7 53.741 18.817 79.706 27.991 106.079 37.342 210.814 75.268 306.367 117.05 90.466 39.562 171.751 81.696 235.434 129.03 53.449 39.737 92.805 81.403 110.06 126.166 14.38 37.342 12.86 74.449-9.59 111.265-4.98 8.123-11.349 16.187-17.08 24.251l4.561 6.136c-.234.643-.409 1.228-.643 1.87-.994-.467-1.93-.993-2.924-1.461-1.93-.642-3.977-1.227-5.731-1.987-2.748-1.168-5.205-2.454-7.836-3.681l1.93-1.928c-.059-1.286.351-2.63-.234-3.857-8.655-17.648-25.263-34.186-44.678-50.256-47.776-39.621-116.664-72.755-199.937-101.214-87.425-29.861-185.727-52.769-290.812-71.235-129.705-22.791-265.024-38.335-403.559-49.321-108.185-8.532-217.188-15.369-325.899-22.791-34.035-1.987-68.42-3.74-102.688-5.727z" fill="#FF8D00"/><path d="M379.983 1077c2.69-26.06 3.86-52.18 8.421-78.189 5.614-32.141 12.397-64.281 21.695-96.246 11.521-39.738 31.637-78.891 60.409-117.284 29.18-38.978 67.542-76.319 120.406-111.031 79.882-52.477 183.096-95.253 323.853-122.017 16.374-3.097 33.508-5.669 50.467-8.298 3.333-.526 9.239-.76 10.877 0 2.105.935 1.93 3.097 1.169 4.558-6.023 12.155-14.035 24.193-18.303 36.406-11.93 34.42-5.439 68.547 13.917 102.382 22.164 38.686 60.526 74.683 110.056 108.928 81.34 56.216 187.83 104.135 305.55 148.372 87.42 32.842 180.23 63.109 274.44 92.739 39.94 12.56 79.88 25.13 119.76 37.69 1.46.47 2.11 1.29 3.16 1.93h-375.08c-1.11-.82-1.81-1.81-3.33-2.51-16.79-7.95-33.69-15.9-50.53-23.79-67.48-31.79-132.51-64.276-192.16-98.521-59-33.835-112.1-69.014-155.61-106.414-56.021-48.211-94.149-98.408-103.564-151.703-7.427-42.075 5.087-83.157 42.981-122.777 8.07-8.415 17.778-16.538 27.193-25.186-1.813.525-2.866.701-3.567 1.051-2.69 1.286-5.322 2.513-7.778 3.857-49.94 27.057-84.326 56.977-106.43 89.409-27.485 40.381-33.859 81.462-25.146 122.952 9.181 43.887 34.444 86.429 70.291 127.978 45.847 53.12 106.9 103.493 174.44 152.694 15.09 10.99 30.06 22.03 45.09 33.02H869.329c-4.736-5.61-9.941-11.22-14.151-16.89-24.854-33.37-51.11-66.617-73.858-100.277-30.994-45.756-49.005-92.448-54.678-139.84-4.385-36.348 1.287-72.404 18.538-108.109 16.432-33.894 44.56-66.268 86.548-96.597 34.034-24.602 76.606-46.575 127.833-65.801 3.568-1.344 7.369-2.571 11.053-3.798-5.088 0-8.655.76-12.047 1.578-58.478 14.2-109.003 32.14-153.154 52.944-62.982 29.686-109.296 63.171-143.506 99.519-36.198 38.451-57.075 78.306-67.952 118.978-10.058 37.75-9.824 75.618-5.555 113.485 5.497 48.62 21.754 96.768 39.94 144.868-82.746-.06-165.552-.06-248.357-.06z" fill="#FF8D00"/><path d="M-213.63 1077c20.877-17.59 42.514-35 62.397-52.83 42.981-38.449 84.5-77.134 127.54-115.528 53.333-47.685 109.59-94.785 176.605-139.723 68.186-45.757 145.962-88.591 241.282-126.05 81.46-32.023 172.452-58.729 277.128-77.429 92.922-16.596 190.23-25.479 292.508-24.544 2.457 0 4.854.117 7.486.584-21.93 2.046-43.918 3.857-65.73 6.136-105.319 10.928-196.838 32.141-279.468 60.016-72.981 24.602-134.09 53.411-186.662 85.084-67.309 40.556-120.582 83.975-160.289 129.906-26.549 30.738-52.689 61.652-73.391 93.033-30.408 46.107-55.729 92.735-83.273 139.135-4.385 7.37-8.771 14.73-13.216 22.15-107.658.06-215.317.06-322.917.06z" fill="#FF8D00"/><path d="M973.304 537.974c-2.866.526-6.14 1.753-8.655 1.578-156.254-13.266-304.847-2.338-448.762 22.79-107.834 18.817-203.446 45.231-291.865 75.969-117.6 40.906-218.533 87.831-309.35 138.204-83.332 46.165-163.388 93.324-244.966 140.016-19.59 11.22-39.765 22.264-59.647 33.426V774.236c2.865-.935 5.964-1.753 8.596-2.747 47.777-18.758 95.086-37.633 143.33-56.216 101.343-39.036 206.896-76.027 322.8-108.109 84.56-23.375 173.213-43.77 268.474-59.431 92.395-15.194 187.715-25.654 287.42-28.868 95.788-3.039 189.996.117 281.456 12.798 16.316 2.279 32.807 4.324 49.18 6.428.585-.059 1.287-.059 1.989-.117z" fill="#FF8D00"/><path d="M-390 336.482c52.046-.409 104.091-.818 156.137-1.286 119.529-1.051 238.942-.233 357.945 4.5 102.981 4.149 204.674 11.103 304.087 22.966 108.887 13.031 211.516 31.206 304.847 57.327 79.414 22.265 147.483 48.971 199.06 81.929 16.959 10.811 29.766 22.732 44.502 34.128-2.69-1.228-5.73-2.338-8.128-3.624-42.046-23.433-92.747-43.419-151.225-60.19-77.25-22.148-162.394-37.809-253.445-48.62-100.992-12.038-204.323-17.414-309.291-18.7-177.248-2.104-351.279 8.123-524.433 21.856-40.116 3.214-80.115 6.603-120.114 9.934.058-33.368.058-66.794.058-100.22z" fill="#FF8D00"/><path d="M971.257 538.149c-49.473-13.908-103.623-24.076-160.932-31.439-102.512-13.207-207.773-17.005-314.964-13.616-131.576 4.149-256.895 18.057-378.471 38.101-81.168 13.324-160.29 28.459-235.317 46.633-89.121 21.564-176.663 44.12-264.965 66.21-2.047.526-4.386.818-6.608 1.227V537.097c11.052-1.87 22.046-3.74 33.099-5.551 99.471-16.655 199.878-32.258 302.917-45.172 102.395-12.798 206.253-22.791 312.859-27.875 118.594-5.61 236.895-5.493 354.261 4.383 99.647 8.415 193.271 22.907 276.602 46.633 30.467 8.707 58.069 18.992 86.958 28.576-1.111 0-2.281-.059-3.392-.059-.702 0-1.404 0-2.047.117z" fill="#FF8D00"/><path d="M975.994 537.974c2.573 1.228 5.087 2.455 7.836 3.623 1.696.76 3.801 1.345 5.672 1.987l.117-.058c-.292 1.987-1.988 4.149-.643 5.961 20.994 28.459 53.974 54.58 97.304 78.715 51.17 28.459 113.39 52.535 183.68 73.28 78.31 23.083 163.68 41.14 253.86 55.632 115.49 18.583 234.91 31.79 357.59 39.855 99.88 6.545 200.35 11.687 300.7 17.18 38.89 2.104 78.07 3.331 117.07 5.026 2.4.117 4.74.467 7.72.818v111.732c-17.66-2.162-34.79-4.324-51.93-6.428-121.17-14.902-243.03-28.985-363.27-45.055-83.39-11.103-165.31-24.135-246.42-37.751-111.75-18.7-216.55-42.6-313.45-71.819-73.33-22.089-139.41-47.218-195.78-76.261-51.05-26.297-92.86-54.873-118.6-86.546-14.09-17.355-21.047-35.588-31.106-53.47-1.52-2.688-2.163-5.434-3.976-8.123-6.667 22.148-5.029 44.238 4.093 66.152 23.799 57.443 87.079 107.758 175.549 153.398 87.72 45.288 194.09 82.513 310.23 115.53 97.13 27.641 199.53 51.951 304.67 74.391 114.44 24.427 230 48.037 344.21 72.697 59.64 12.86 117.24 27.17 176.07 40.67 8.48 1.93 11.99 4.21 10.41 7.89h-521.62c-1.06-.64-1.76-1.46-3.16-1.93-39.88-12.56-79.82-25.13-119.77-37.69-94.2-29.63-187.01-59.898-274.43-92.74-117.72-44.237-224.21-92.156-305.55-148.373-49.53-34.244-87.895-70.241-110.059-108.927-19.356-33.835-25.906-67.962-13.917-102.382 4.268-12.213 12.28-24.251 18.303-36.406.76-1.52.936-3.624-1.169-4.559-1.638-.759-7.544-.525-10.877 0-16.959 2.63-34.035 5.143-50.467 8.299-140.757 26.764-243.971 69.54-323.853 122.017-52.864 34.711-91.284 72.111-120.406 111.031-28.772 38.393-48.83 77.546-60.408 117.283-9.298 31.966-16.082 64.106-21.696 96.247-4.561 26-5.731 52.13-8.421 78.19H109.346c4.386-7.36 8.83-14.73 13.216-22.15 27.485-46.4 52.864-93.031 83.273-139.138 20.701-31.44 46.841-62.294 73.39-93.032 39.707-45.932 92.922-89.351 160.289-129.907 52.631-31.673 113.682-60.482 186.663-85.084 82.63-27.875 174.148-49.088 279.467-60.016 21.754-2.279 43.801-4.09 65.73-6.136-2.573-.467-5.029-.525-7.485-.584-102.337-.993-199.586 7.948-292.508 24.544-104.677 18.7-195.669 45.406-277.129 77.429-95.32 37.459-173.096 80.293-241.281 126.05-67.016 44.938-123.214 92.038-176.605 139.723-42.981 38.452-84.559 77.079-127.541 115.531-19.882 17.76-41.519 35.24-62.396 52.83h-176.37V950.074c19.882-11.161 40.057-22.206 59.647-33.426 81.636-46.691 161.634-93.85 244.966-140.016 90.875-50.373 191.75-97.298 309.35-138.204 88.419-30.738 184.089-57.152 291.865-75.968 143.915-25.128 292.508-36.056 448.762-22.791 2.515.234 5.731-.993 8.655-1.578 1.111 0 2.28.059 3.392.059l-.702-.176zM-390 .992c55.905 0 111.752-.117 167.657.117 7.252 0 15.322 1.11 21.579 2.63 93.039 22.498 185.785 45.114 278.707 67.67 81.577 19.81 163.505 39.387 244.673 59.49 86.197 21.329 168.476 44.938 246.837 70.65 91.402 30.037 175.026 63.171 245.492 101.272 74.267 40.147 130.933 83.799 159.47 132.653 18.538 31.79 24.619 63.989 12.456 96.48-.351.935-.877 1.928-3.45 2.922-.41-1.52-1.053-2.981-1.287-4.5-4.97-39.153-33.508-75.618-78.595-110.213-46.899-35.997-109.471-67.261-182.51-95.194-93.215-35.705-199.236-64.281-312.45-88.766-103.038-22.323-210.171-41.023-319.642-57.62-103.916-15.719-208.709-30.562-312.976-45.931-53.039-7.831-105.845-15.895-158.827-23.843-2.222-.35-4.795-.35-7.192-.526C-390 72.461-390 36.756-390 .993z" fill="#FF6EAD"/><path d="M-390 231.295c34.268 2.045 68.654 3.799 102.805 6.078 108.711 7.421 217.773 14.258 325.9 22.79 138.534 10.928 273.853 26.531 403.558 49.321 105.085 18.467 203.329 41.374 290.812 71.235 83.273 28.459 152.161 61.593 199.937 101.214 19.357 16.07 36.023 32.608 44.678 50.256.585 1.227.175 2.571.234 3.857-.468 0-.936.058-1.404.058-14.736-11.395-27.484-23.258-44.502-34.127-51.578-32.959-119.646-59.665-199.06-81.929-93.331-26.122-195.96-44.296-304.847-57.327-99.413-11.921-201.107-18.875-304.087-22.966-119.003-4.792-238.416-5.61-357.945-4.5-52.046.468-104.092.877-156.137 1.286.058-35.121.058-70.183.058-105.246z" fill="#FF6EAD"/><path d="M971.257 538.15c-16.374-2.163-32.865-4.149-49.18-6.428-91.402-12.74-185.669-15.895-281.456-12.798-99.764 3.155-195.084 13.674-287.421 28.868-95.261 15.661-183.914 36.056-268.473 59.431-115.963 32.082-221.458 69.131-322.8 108.109-48.187 18.583-95.554 37.458-143.331 56.216-2.631 1.052-5.672 1.87-8.596 2.747v-129.03c2.222-.409 4.561-.759 6.608-1.227 88.244-22.089 175.844-44.705 264.965-66.209 75.086-18.116 154.149-33.251 235.317-46.633 121.576-19.986 246.895-33.894 378.471-38.102 107.191-3.389 212.452.409 314.964 13.616 57.309 7.305 111.459 17.532 160.932 31.44z" fill="#FF6EAD"/><path d="M976.695 538.033c-28.888-9.584-56.431-19.927-86.957-28.576-83.273-23.726-176.897-38.218-276.602-46.633-117.366-9.934-235.667-10.051-354.261-4.383-106.606 5.084-210.522 15.077-312.859 27.875-103.039 12.856-203.446 28.459-302.917 45.172-11.053 1.87-22.047 3.74-33.099 5.551V436.761c40.058-3.331 79.998-6.779 120.114-9.934C-96.79 413.094 77.3 402.809 254.547 404.971c104.91 1.227 208.3 6.662 309.292 18.7 91.05 10.869 176.195 26.472 253.444 48.62 58.479 16.771 109.179 36.757 151.225 60.19 2.339 1.286 5.38 2.455 8.129 3.623.467 0 .935-.058 1.403-.058l-1.93 1.928c-.117 0 .585.059.585.059zM1122.72 1077c-15.03-10.99-30-22.03-45.09-33.02-67.48-49.201-128.595-99.516-174.442-152.694-35.847-41.549-61.109-84.091-70.291-127.977-8.654-41.491-2.339-82.514 25.146-122.953 22.046-32.432 56.432-62.352 106.431-89.409 2.456-1.344 5.146-2.571 7.777-3.857.702-.35 1.755-.525 3.567-1.051-9.356 8.648-19.122 16.771-27.192 25.186-37.894 39.562-50.408 80.644-42.982 122.777 9.357 53.295 47.485 103.434 103.566 151.703 43.51 37.459 96.61 72.579 155.61 106.415 59.65 34.244 124.68 66.74 192.16 98.52 16.84 7.95 33.74 15.84 50.52 23.79 1.47.7 2.23 1.64 3.34 2.51-96.08.06-192.1.06-288.12.06z" fill="#FF6EAD"/><path d="M628.399 1077c-18.187-48.04-34.444-96.188-39.941-144.866-4.269-37.867-4.503-75.735 5.556-113.485 10.818-40.731 31.695-80.527 67.951-118.979 34.269-36.348 80.583-69.891 143.506-99.519 44.151-20.803 94.676-38.744 153.155-52.944 3.391-.818 6.9-1.578 12.046-1.578-3.684 1.286-7.543 2.513-11.052 3.799-51.227 19.284-93.799 41.257-127.834 65.8-41.987 30.329-70.174 62.704-86.548 96.597-17.251 35.705-22.982 71.761-18.537 108.109 5.731 47.393 23.742 94.084 54.677 139.841 22.748 33.601 49.005 66.855 73.858 100.275 4.269 5.67 9.415 11.28 14.152 16.89-80.349.06-160.698.06-240.989.06zm364.67-533.766c-1.52-2.046-3.041-4.091-4.503-6.136h-.351c1.696.467 3.334.935 5.029 1.402l-.175-.175c3.918.409 8.131 1.402 11.641 1.11 73.09-6.311 140.81-17.823 204.03-33.718 122.1-30.621 214.67-72.521 289.46-121.141 71.52-46.516 121.52-96.714 160.59-148.84 38.59-51.483 64.73-104.135 88.77-156.962 11.63-25.654 22.22-51.367 33.39-77.43h305.43c-7.54 7.363-15.26 14.61-22.28 21.914-37.19 38.861-74.27 77.663-111.17 116.583-48.94 51.6-100.7 102.733-164.26 151.82-60.29 46.574-130.12 90.519-217.19 129.906-65.85 29.745-139.77 55.808-224.68 76.67-96.6 23.667-200.75 38.627-314.2 42.542-9.88.351-19.88.117-29.77.468-2.51.058-4.732 1.344-7.071 2.045l-.058.292-.644.234c-.701-.175-1.403-.351-1.988-.584z" fill="#FF6EAD"/><path d="M995.701 543.526l.059-.292c17.6.584 35.2 1.11 52.81 1.753 85.96 3.038 169.87-1.403 252.45-10.928 84.85-9.818 163.38-25.128 237.48-44.179 100.17-25.771 187.42-57.444 267.07-92.681 86.78-38.335 163.15-79.884 232.39-123.42 73.1-45.99 143.91-92.565 215.84-138.847 16.73-10.753 33.98-21.388 52.87-33.192.35 2.746.7 4.09.7 5.493.06 58.203.17 116.465-.24 174.669 0 2.629-3.09 5.902-7.54 7.83-68.24 29.453-135.49 59.256-205.84 87.89-98.42 40.03-204.03 76.787-321.57 107.817-69.18 18.232-141.52 34.186-218.42 46.633-98.89 15.953-201.22 26.005-308.36 27.29-80.58.935-159.17-3.506-235.55-13.908-4.62-.759-9.41-1.285-14.149-1.928zm-7.485-6.429h.351c5.672-8.064 12.103-16.07 17.073-24.251 22.46-36.816 23.98-73.923 9.59-111.265-17.248-44.763-56.662-86.428-110.053-126.166-63.683-47.334-144.968-89.467-235.434-129.03-95.553-41.782-200.288-79.708-306.367-117.05-25.965-9.116-51.988-18.29-79.706-27.991 4.619-.117 7.251-.292 9.883-.292 108.418 0 216.837-.059 325.256.117 5.555 0 12.982 1.285 16.315 2.98 77.425 39.387 151.751 79.709 218.358 122.192 60.701 38.744 113.974 79.008 154.328 121.842 48.18 51.191 77.01 103.902 72.16 158.95-3.98 45.055-29.88 87.948-86.608 127.335-1.345.876-3.392 1.694-5.146 2.629z" fill="#FF6EAD"/><path d="M993.07 538.325l.175.175c.409-.467.877-.876 1.287-1.344l5.618-.351c48.47-12.33 89.99-27.874 127.48-45.172 46.9-21.563 84.5-45.639 114.21-71.585 42.45-37.05 68.88-75.969 82.8-116.291 15.03-43.594 16.73-87.305 8.95-131.133-6.61-37.458-18.6-74.624-35.44-111.557-9-19.81-18.24-39.62-27.48-59.723h246.25c0 6.487-.12 12.973 0 19.518.93 47.1 1.52 94.201-7.19 141.243-5.97 32.141-15.85 64.106-31 95.779-21.93 45.815-55.84 90.052-107.77 131.893-43.1 34.77-97.49 66.385-166.78 93.675-58.31 22.908-124.33 41.491-199.77 54.347-3.33.526-7.539.351-11.34.526zm-3.451 5.259s-.175.117-.117.059c.994.467 1.989.935 2.924 1.461l-.175-.175c11.399 5.96 21.809 12.33 34.439 17.823 56.67 24.777 123.45 44.354 198.25 59.548 73.8 15.018 151.81 25.244 232.97 31.556 119.83 9.408 240.7 10.635 362.16 6.837 154.44-4.909 305.02-17.94 454.49-33.543 10.35-1.052 20.82-1.987 32.17-3.039v94.785c-28.89.877-57.61 2.163-86.44 2.572-99.58 1.402-199.17 3.447-298.76 3.506-107.31 0-213.97-4.325-319.18-13.265-97.83-8.299-192.33-20.337-281.86-38.511-83.39-16.946-158.59-38.218-222.98-65.333-42.4-17.823-77.95-37.692-105.669-59.664-1.754-1.344-1.52-3.097-2.222-4.617z" fill="#FF6EAD"/><path d="M1000.15 536.747l-5.619.351c13.739-7.363 28.069-14.551 41.049-22.09 57.96-33.601 93.22-70.884 111.99-110.797 22.81-48.678 19.12-97.356-1.46-145.976-18.66-44.179-48.66-87.072-91.05-128.504-35.97-35.12-75.967-69.599-114.504-104.31-8.83-7.948-19.005-15.72-29.239-24.135 5.263-.117 9.532-.292 13.801-.292 74.092 0 148.122.058 222.212-.117 9.54 0 13.22 1.052 15.91 4.85 31.75 44.646 61.29 89.468 81.81 135.166 21.99 48.912 34.62 98.233 28.48 148.021-7.13 57.736-36.84 113.31-105.49 164.735-41.06 30.738-93.92 57.912-161.7 80.118-2.39.818-4.09 1.987-6.19 2.98zm-7.899 8.182l.175.175c.234-.643.41-1.227.644-1.87a8.906 8.906 0 001.988.526c22.392 4.909 44.032 10.402 67.252 14.551 104.56 18.875 214.96 25.537 329 23.959 125.9-1.753 245.96-13.791 362.74-32.082 79.88-12.506 156.31-27.758 230.69-44.763 108.54-24.894 210.76-53.47 311.28-83.098 2.99-.876 6.08-1.695 10.3-2.863.46 1.344 1.16 2.396 1.16 3.389.06 33.075-.05 66.151.24 99.227 0 2.863-2.22 4.441-8.77 5.668-98.01 18.466-196.9 36.056-299 50.665-96.67 13.791-195.26 25.128-296.78 31.556-118.77 7.539-237.83 9.233-357.07.76-120.11-8.532-230.17-26.122-326.25-56.626-9.35-2.98-18.42-6.136-27.599-9.174z" fill="#FF6EAD"/></g><defs><clipPath id="clip0"><path fill="#fff" transform="translate(-390)" d="M0 0h2700v1077H0z"/></clipPath></defs></svg>